<svg width="18" height="19" viewBox="0 0 18 19" fill="none" xmlns="http://www.w3.org/2000/svg">
<path d="M16.9 18.5025L10.325 11.8852C9.825 12.3213 9.24167 12.661 8.575 12.9042C7.90833 13.1475 7.2 13.2691 6.45 13.2691C4.65 13.2691 3.125 12.64 1.875 11.382C0.625 10.124 0 8.60591 0 6.82788C0 5.04984 0.625 3.5318 1.875 2.27375C3.125 1.01571 4.64167 0.386688 6.425 0.386688C8.19167 0.386688 9.69583 1.01571 10.9375 2.27375C12.1792 3.5318 12.8 5.04984 12.8 6.82788C12.8 7.54915 12.6833 8.24527 12.45 8.91623C12.2167 9.58719 11.8667 10.2162 11.4 10.8033L18 17.3954L16.9 18.5025ZM6.425 11.7594C7.775 11.7594 8.925 11.2772 9.875 10.3127C10.825 9.34816 11.3 8.18656 11.3 6.82788C11.3 5.46919 10.825 4.30759 9.875 3.34309C8.925 2.37859 7.775 1.89634 6.425 1.89634C5.05833 1.89634 3.89583 2.37859 2.9375 3.34309C1.97917 4.30759 1.5 5.46919 1.5 6.82788C1.5 8.18656 1.97917 9.34816 2.9375 10.3127C3.89583 11.2772 5.05833 11.7594 6.425 11.7594V11.7594Z" fill="#F5F5F5"/>
</svg>
